<svg xmlns="http://www.w3.org/2000/svg" width="1.2em" height="1.2em" viewBox="0 0 16 16">
    <title>Twitter black and white logo</title>
    <path fill="currentColor" d="M5.032 14.286c6.037 0 9.34-4.837 9.34-9.032c0-.137 0-.274-.01-.41A6.56 6.56 0 0 0 16 3.2c-.6.256-1.235.425-1.885.5a3.207 3.207 0 0 0 1.443-1.757c-.645.37-1.35.63-2.06.77a3.298 3.298 0 0 0-5.733 3.008A9.37 9.37 0 0 1 1.117 2.417a3.297 3.297 0 0 0 1.022 4.405A3.272 3.272 0 0 1 .64 6.61v.04a3.299 3.299 0 0 0 2.646 3.232a3.29 3.29 0 0 1-.886.118c-.216 0-.428-.02-.634-.06a3.302 3.302 0 0 0 3.078 2.29A6.61 6.61 0 0 1 .24 12.99c-.21 0-.413-.012-.615-.035A9.32 9.32 0 0 0 5.032 14.286z"/>
</svg>